<svg xmlns="http://www.w3.org/2000/svg" viewBox="0 0 60 30">
  <path fill="white"
    d="M52.1 0H.9C.4 0 0 .4 0 .9v21.2C0 26.9 3.1 30 7.9 30h51.2c.5 0 .9-.4.9-.9V7.9C60 3.1 56.9 0 52.1 0zM12.8 18.8h1.5c.8 0 1.4.6 1.4 1.4 0 .8-.7 1.4-1.5 1.4h-1.5c-3.1 0-5.4-2.5-5.3-5.6l.1-2.9H6c-.8 0-1.4-.6-1.4-1.4 0-.8.7-1.4 1.5-1.4h1.4l.1-1.8C7.6 7.7 8.3 7 9 7c.8 0 1.4.6 1.4 1.4l-.1 1.8h3.9c.8 0 1.4.6 1.4 1.4 0 .8-.7 1.4-1.5 1.4h-3.9v3c-.1 1.5 1 2.8 2.6 2.8zm14.4-2.9c-.1 3.1-1.7 5.6-5.2 5.6s-5.1-2.5-5-5.6l.1-4.2c0-.8.7-1.4 1.5-1.4s1.4.6 1.4 1.4l-.1 4.2c0 1.5.6 2.8 2.2 2.8s2.3-1.2 2.4-2.8l.1-4.2c0-.8.7-1.4 1.5-1.4s1.4.6 1.4 1.4l-.3 4.2zm11.5 4.9c-.2 3.1-2.9 5-5.9 5-.8 0-1.4-.6-1.3-1.4 0-.8.7-1.4 1.5-1.4 1.5 0 2.9-.7 3-2.2-.6.6-1.3.8-2.3.8-3.1 0-5-2.5-4.8-5.6l.2-4.2c0-.8.7-1.4 1.5-1.4s1.4.6 1.3 1.4l-.2 4.2c-.1 1.5.6 2.8 2.1 2.8s2.3-1.2 2.4-2.8l.2-4.2c0-.8.7-1.4 1.5-1.4s1.4.6 1.3 1.4l-.5 9zm12.9-1.2c0 .8-.7 1.4-1.5 1.4s-1.4-.6-1.4-1.4l.1-3.9c.1-1.5-1.1-2.8-2.7-2.8-1.5 0-2.8 1.2-2.9 2.8-.1 1.5 1.1 2.8 2.7 2.8.8 0 1.4.6 1.4 1.4 0 .8-.7 1.4-1.5 1.4-3.1 0-5.5-2.4-5.4-5.5.1-3.1 2.7-5.7 5.8-5.7s5.5 2.5 5.4 5.6v3.9zm2.2-9.4c-.1.5-.5.8-.9.8h-.1c-.5-.1-.9-.5-.8-1h.1-.1c0-.4-.1-.8-.4-1-.3-.2-.7-.3-1.1-.1-.5.2-1 0-1.2-.5-.2-.4 0-.9.4-1.2h.1c1-.5 2.2-.3 3 .3.7.5 1.2 1.6 1 2.7zm3.4-.1c-.1.5-.5.8-.9.8h-.1c-.3 0-.5-.2-.6-.4s-.2-.4-.2-.7c.2-1.5-.4-3-1.7-3.9-1.2-.9-2.8-1.1-4.2-.4-.2.1-.5.1-.7 0-.2-.1-.4-.3-.5-.5-.2-.5 0-1 .4-1.2 2-.9 4.3-.7 6.1.6 1.7 1.3 2.6 3.5 2.4 5.7z" />
</svg>
